<svg xmlns="http://www.w3.org/2000/svg" xmlns:xlink="http://www.w3.org/1999/xlink" width="190" zoomAndPan="magnify" viewBox="0 0 142.5 62.249996" height="83" preserveAspectRatio="xMidYMid meet" version="1.0"><path fill="#0080b8" d="M 72.097656 49.433594 C 72.097656 49.210938 72.136719 48.859375 72.179688 48.480469 L 72.167969 48.480469 C 71.765625 49.246094 71.257812 49.519531 70.730469 49.519531 C 70.082031 49.519531 69.664062 49 69.664062 48.292969 C 69.664062 47.003906 70.613281 45.640625 72.230469 45.640625 C 72.582031 45.640625 72.972656 45.703125 73.226562 45.78125 L 72.847656 47.710938 C 72.722656 48.355469 72.675781 49.011719 72.6875 49.429688 L 72.097656 49.429688 Z M 72.507812 46.199219 C 72.414062 46.171875 72.277344 46.140625 72.0625 46.140625 C 71.109375 46.140625 70.320312 47.148438 70.316406 48.175781 C 70.316406 48.589844 70.457031 48.992188 70.953125 48.992188 C 71.480469 48.992188 72.109375 48.304688 72.289062 47.3125 Z M 72.507812 46.199219 " fill-opacity="1" fill-rule="nonzero"/><path fill="#0080b8" d="M 76.019531 44.34375 C 76.308594 44.277344 76.710938 44.226562 77.132812 44.226562 C 77.628906 44.226562 78.105469 44.351562 78.394531 44.625 C 78.644531 44.851562 78.773438 45.152344 78.773438 45.558594 C 78.773438 46.140625 78.488281 46.625 78.152344 46.910156 C 77.757812 47.246094 77.175781 47.402344 76.59375 47.402344 C 76.402344 47.402344 76.230469 47.386719 76.066406 47.363281 L 75.675781 49.433594 L 75.050781 49.433594 L 76.023438 44.34375 Z M 76.167969 46.832031 C 76.351562 46.867188 76.496094 46.886719 76.679688 46.886719 C 77.554688 46.886719 78.136719 46.339844 78.136719 45.617188 C 78.136719 45.003906 77.695312 44.761719 77.109375 44.761719 C 76.855469 44.761719 76.660156 44.785156 76.550781 44.816406 L 76.167969 46.835938 Z M 76.167969 46.832031 " fill-opacity="1" fill-rule="nonzero"/><path fill="#0080b8" d="M 78.816406 49.433594 L 79.269531 47.042969 C 79.363281 46.558594 79.421875 46.066406 79.460938 45.722656 L 80.019531 45.722656 C 79.988281 45.980469 79.957031 46.242188 79.917969 46.527344 L 79.945312 46.527344 C 80.179688 46.019531 80.582031 45.640625 81.078125 45.640625 C 81.132812 45.640625 81.207031 45.648438 81.25 45.652344 L 81.125 46.277344 C 81.089844 46.273438 81.027344 46.265625 80.960938 46.265625 C 80.40625 46.265625 79.917969 46.9375 79.757812 47.796875 L 79.453125 49.429688 L 78.816406 49.429688 Z M 78.816406 49.433594 " fill-opacity="1" fill-rule="nonzero"/><path fill="#0080b8" d="M 83.875 49.21875 C 83.601562 49.378906 83.152344 49.507812 82.648438 49.507812 C 81.671875 49.507812 81.242188 48.839844 81.242188 48.019531 C 81.242188 46.90625 82.074219 45.640625 83.261719 45.640625 C 83.96875 45.640625 84.351562 46.0625 84.351562 46.589844 C 84.351562 47.5625 83.257812 47.824219 81.886719 47.796875 C 81.855469 47.957031 81.886719 48.304688 81.960938 48.503906 C 82.109375 48.832031 82.40625 49 82.792969 49 C 83.226562 49 83.558594 48.863281 83.789062 48.738281 L 83.882812 49.21875 Z M 83.175781 46.140625 C 82.570312 46.140625 82.117188 46.730469 81.96875 47.3125 C 82.964844 47.320312 83.746094 47.191406 83.746094 46.621094 C 83.746094 46.316406 83.515625 46.140625 83.183594 46.140625 Z M 83.175781 46.140625 " fill-opacity="1" fill-rule="nonzero"/><path fill="#0080b8" d="M 84.703125 48.789062 C 84.878906 48.894531 85.199219 49.019531 85.496094 49.019531 C 85.925781 49.019531 86.203125 48.746094 86.203125 48.410156 C 86.203125 48.121094 86.074219 47.945312 85.691406 47.730469 C 85.261719 47.492188 85.019531 47.164062 85.019531 46.789062 C 85.019531 46.136719 85.578125 45.640625 86.359375 45.640625 C 86.691406 45.640625 86.996094 45.734375 87.132812 45.828125 L 86.957031 46.308594 C 86.828125 46.234375 86.59375 46.140625 86.316406 46.140625 C 85.929688 46.140625 85.660156 46.378906 85.660156 46.699219 C 85.660156 46.96875 85.832031 47.132812 86.167969 47.320312 C 86.582031 47.554688 86.859375 47.878906 86.859375 48.292969 C 86.859375 49.074219 86.222656 49.507812 85.441406 49.507812 C 85.046875 49.507812 84.691406 49.382812 84.527344 49.253906 L 84.699219 48.789062 Z M 84.703125 48.789062 " fill-opacity="1" fill-rule="nonzero"/><path fill="#0080b8" d="M 87.523438 49.433594 L 88.234375 45.726562 L 88.871094 45.726562 L 88.160156 49.433594 Z M 88.351562 44.691406 C 88.351562 44.445312 88.542969 44.265625 88.773438 44.265625 C 89.003906 44.265625 89.152344 44.433594 89.152344 44.660156 C 89.152344 44.914062 88.964844 45.089844 88.722656 45.089844 C 88.5 45.089844 88.359375 44.921875 88.359375 44.691406 Z M 88.351562 44.691406 " fill-opacity="1" fill-rule="nonzero"/><path fill="#0080b8" d="M 93.21875 43.992188 L 92.40625 48.257812 C 92.332031 48.640625 92.269531 49.066406 92.246094 49.429688 L 91.664062 49.429688 L 91.761719 48.691406 L 91.746094 48.691406 C 91.410156 49.21875 90.941406 49.507812 90.414062 49.507812 C 89.695312 49.507812 89.304688 48.917969 89.304688 48.15625 C 89.304688 46.835938 90.285156 45.628906 91.597656 45.628906 C 91.832031 45.628906 92.089844 45.683594 92.253906 45.757812 L 92.582031 43.980469 L 93.21875 43.980469 Z M 92.152344 46.308594 C 92.023438 46.222656 91.808594 46.15625 91.539062 46.15625 C 90.65625 46.15625 89.960938 47.097656 89.960938 48.082031 C 89.960938 48.527344 90.117188 48.992188 90.65625 48.992188 C 91.144531 48.992188 91.734375 48.4375 91.894531 47.597656 L 92.148438 46.304688 L 92.152344 46.304688 Z M 92.152344 46.308594 " fill-opacity="1" fill-rule="nonzero"/><path fill="#0080b8" d="M 93.292969 49.433594 L 94.003906 45.726562 L 94.640625 45.726562 L 93.929688 49.433594 Z M 94.121094 44.691406 C 94.121094 44.445312 94.3125 44.265625 94.542969 44.265625 C 94.773438 44.265625 94.921875 44.433594 94.921875 44.660156 C 94.921875 44.914062 94.734375 45.089844 94.492188 45.089844 C 94.269531 45.089844 94.128906 44.921875 94.128906 44.691406 Z M 94.121094 44.691406 " fill-opacity="1" fill-rule="nonzero"/><path fill="#0080b8" d="M 98.59375 47.191406 C 98.59375 48.332031 97.78125 49.519531 96.542969 49.519531 C 95.613281 49.519531 95.09375 48.832031 95.09375 47.996094 C 95.09375 46.78125 95.941406 45.648438 97.144531 45.648438 C 98.148438 45.648438 98.59375 46.402344 98.59375 47.195312 Z M 95.757812 47.972656 C 95.757812 48.578125 96.085938 49.011719 96.628906 49.011719 C 97.378906 49.011719 97.949219 48.046875 97.949219 47.183594 C 97.949219 46.757812 97.75 46.148438 97.082031 46.148438 C 96.285156 46.148438 95.75 47.121094 95.757812 47.972656 Z M 95.757812 47.972656 " fill-opacity="1" fill-rule="nonzero"/><path fill="#0080b8" d="M 104.015625 49.265625 C 103.726562 49.398438 103.261719 49.515625 102.679688 49.515625 C 101.378906 49.515625 100.59375 48.695312 100.59375 47.375 C 100.59375 46.402344 100.984375 45.472656 101.695312 44.882812 C 102.222656 44.433594 102.882812 44.191406 103.640625 44.191406 C 104.214844 44.191406 104.617188 44.332031 104.753906 44.445312 L 104.550781 44.957031 C 104.355469 44.839844 103.992188 44.742188 103.535156 44.742188 C 102.996094 44.742188 102.457031 44.945312 102.054688 45.324219 C 101.570312 45.777344 101.269531 46.503906 101.269531 47.28125 C 101.269531 48.210938 101.6875 48.96875 102.835938 48.96875 C 103.222656 48.96875 103.652344 48.894531 103.9375 48.746094 L 104.023438 49.265625 Z M 104.015625 49.265625 " fill-opacity="1" fill-rule="nonzero"/><path fill="#0080b8" d="M 108.171875 47.191406 C 108.171875 48.332031 107.359375 49.519531 106.121094 49.519531 C 105.191406 49.519531 104.671875 48.832031 104.671875 47.996094 C 104.671875 46.78125 105.519531 45.648438 106.722656 45.648438 C 107.726562 45.648438 108.171875 46.402344 108.171875 47.195312 Z M 105.335938 47.972656 C 105.335938 48.578125 105.664062 49.011719 106.207031 49.011719 C 106.957031 49.011719 107.527344 48.046875 107.527344 47.183594 C 107.527344 46.757812 107.328125 46.148438 106.660156 46.148438 C 105.863281 46.148438 105.328125 47.121094 105.335938 47.972656 Z M 105.335938 47.972656 " fill-opacity="1" fill-rule="nonzero"/><path fill="#0080b8" d="M 108.617188 49.433594 L 109.113281 46.804688 C 109.1875 46.390625 109.242188 46.03125 109.28125 45.726562 L 109.835938 45.726562 L 109.738281 46.421875 L 109.761719 46.421875 C 110.109375 45.90625 110.574219 45.640625 111.0625 45.640625 C 111.625 45.640625 111.898438 46 111.929688 46.464844 C 112.257812 45.925781 112.734375 45.648438 113.292969 45.640625 C 113.71875 45.640625 114.191406 45.914062 114.191406 46.613281 C 114.191406 46.789062 114.164062 47.035156 114.128906 47.238281 L 113.710938 49.429688 L 113.09375 49.429688 L 113.488281 47.289062 C 113.519531 47.152344 113.546875 46.960938 113.546875 46.804688 C 113.546875 46.414062 113.402344 46.160156 112.988281 46.160156 C 112.53125 46.160156 111.984375 46.699219 111.832031 47.523438 L 111.472656 49.429688 L 110.859375 49.429688 L 111.273438 47.253906 C 111.304688 47.089844 111.316406 46.949219 111.316406 46.800781 C 111.316406 46.484375 111.230469 46.160156 110.765625 46.160156 C 110.300781 46.160156 109.726562 46.773438 109.578125 47.5625 L 109.230469 49.421875 L 108.609375 49.421875 L 108.609375 49.433594 Z M 108.617188 49.433594 " fill-opacity="1" fill-rule="nonzero"/><path fill="#0080b8" d="M 114.46875 50.953125 L 115.210938 47.046875 C 115.285156 46.601562 115.367188 46.105469 115.414062 45.726562 L 115.996094 45.726562 L 115.890625 46.421875 L 115.910156 46.421875 C 116.246094 45.9375 116.734375 45.640625 117.242188 45.640625 C 118.046875 45.640625 118.382812 46.296875 118.382812 46.980469 C 118.382812 48.28125 117.445312 49.515625 116.214844 49.515625 C 115.816406 49.515625 115.558594 49.429688 115.410156 49.347656 L 115.390625 49.347656 L 115.09375 50.945312 L 114.46875 50.945312 Z M 115.507812 48.8125 C 115.667969 48.945312 115.910156 49.019531 116.214844 49.019531 C 117.03125 49.019531 117.71875 48.003906 117.71875 47.027344 C 117.71875 46.636719 117.546875 46.171875 117.007812 46.171875 C 116.511719 46.171875 115.878906 46.75 115.6875 47.785156 L 115.503906 48.820312 L 115.507812 48.820312 Z M 115.507812 48.8125 " fill-opacity="1" fill-rule="nonzero"/><path fill="#0080b8" d="M 121.273438 49.433594 C 121.273438 49.210938 121.308594 48.859375 121.351562 48.480469 L 121.339844 48.480469 C 120.9375 49.246094 120.429688 49.519531 119.90625 49.519531 C 119.253906 49.519531 118.839844 49 118.839844 48.292969 C 118.839844 47.003906 119.785156 45.640625 121.402344 45.640625 C 121.753906 45.640625 122.144531 45.703125 122.398438 45.78125 L 122.023438 47.710938 C 121.898438 48.355469 121.847656 49.011719 121.859375 49.429688 L 121.273438 49.429688 Z M 121.679688 46.199219 C 121.589844 46.171875 121.453125 46.140625 121.234375 46.140625 C 120.28125 46.140625 119.496094 47.148438 119.488281 48.175781 C 119.488281 48.589844 119.632812 48.992188 120.128906 48.992188 C 120.652344 48.992188 121.285156 48.304688 121.464844 47.3125 Z M 121.679688 46.199219 " fill-opacity="1" fill-rule="nonzero"/><path fill="#0080b8" d="M 122.808594 49.433594 L 123.304688 46.804688 C 123.382812 46.390625 123.433594 46.03125 123.476562 45.726562 L 124.039062 45.726562 L 123.949219 46.453125 L 123.960938 46.453125 C 124.289062 45.933594 124.789062 45.640625 125.328125 45.640625 C 125.773438 45.640625 126.269531 45.894531 126.269531 46.675781 C 126.269531 46.835938 126.238281 47.074219 126.203125 47.269531 L 125.785156 49.433594 L 125.148438 49.433594 L 125.550781 47.296875 C 125.582031 47.152344 125.605469 46.972656 125.605469 46.816406 C 125.605469 46.441406 125.457031 46.167969 125.023438 46.167969 C 124.589844 46.167969 123.929688 46.710938 123.761719 47.628906 L 123.425781 49.429688 L 122.789062 49.429688 L 122.808594 49.429688 Z M 122.808594 49.433594 " fill-opacity="1" fill-rule="nonzero"/><path fill="#0080b8" d="M 127.65625 45.726562 L 128.023438 47.730469 C 128.109375 48.152344 128.152344 48.421875 128.1875 48.703125 L 128.199219 48.703125 C 128.300781 48.46875 128.40625 48.207031 128.597656 47.796875 L 129.539062 45.726562 L 130.214844 45.726562 L 128.828125 48.546875 C 128.429688 49.351562 128.050781 50.003906 127.550781 50.492188 C 127.136719 50.914062 126.683594 51.089844 126.472656 51.136719 L 126.320312 50.59375 C 126.480469 50.53125 126.746094 50.433594 127 50.234375 C 127.246094 50.042969 127.515625 49.742188 127.710938 49.382812 C 127.742188 49.324219 127.742188 49.277344 127.738281 49.21875 L 126.992188 45.734375 L 127.65625 45.734375 Z M 127.65625 45.726562 " fill-opacity="1" fill-rule="nonzero"/><path fill="#e4002b" d="M 110.035156 26.269531 C 109.667969 27.980469 107.996094 29.34375 106.308594 29.34375 C 104.617188 29.34375 103.539062 27.96875 103.910156 26.257812 C 104.269531 24.578125 105.941406 23.203125 107.632812 23.203125 C 109.324219 23.203125 110.398438 24.582031 110.035156 26.277344 Z M 110.035156 26.269531 " fill-opacity="1" fill-rule="nonzero"/><path fill="#e4002b" d="M 96.765625 32.679688 C 96.394531 34.371094 94.722656 35.734375 93.039062 35.730469 C 91.347656 35.730469 90.269531 34.351562 90.636719 32.667969 C 91.007812 30.96875 92.671875 29.585938 94.363281 29.605469 C 96.058594 29.605469 97.132812 30.988281 96.765625 32.683594 Z M 96.765625 32.679688 " fill-opacity="1" fill-rule="nonzero"/><path fill="#e4002b" d="M 99.777344 19.011719 C 99.410156 20.703125 97.738281 22.066406 96.046875 22.066406 C 94.351562 22.066406 93.285156 20.683594 93.644531 18.980469 C 94.011719 17.289062 95.683594 15.925781 97.367188 15.925781 C 99.082031 15.9375 100.148438 17.300781 99.777344 19.011719 Z M 99.777344 19.011719 " fill-opacity="1" fill-rule="nonzero"/><path fill="#e4002b" d="M 96.765625 32.679688 C 96.394531 34.371094 94.722656 35.734375 93.039062 35.730469 C 91.347656 35.730469 90.269531 34.351562 90.636719 32.667969 C 91.007812 30.96875 92.671875 29.585938 94.363281 29.605469 C 96.058594 29.605469 97.132812 30.988281 96.765625 32.683594 Z M 96.765625 32.679688 " fill-opacity="1" fill-rule="nonzero"/><path fill="#e4002b" d="M 110.035156 26.269531 C 109.667969 27.980469 107.996094 29.34375 106.308594 29.34375 C 104.617188 29.34375 103.539062 27.96875 103.910156 26.257812 C 104.269531 24.578125 105.941406 23.203125 107.632812 23.203125 C 109.324219 23.203125 110.398438 24.582031 110.035156 26.277344 Z M 110.035156 26.269531 " fill-opacity="1" fill-rule="nonzero"/><path fill="#e4002b" d="M 99.777344 19.011719 C 99.410156 20.703125 97.738281 22.066406 96.046875 22.066406 C 94.351562 22.066406 93.285156 20.683594 93.644531 18.980469 C 94.011719 17.289062 95.683594 15.925781 97.367188 15.925781 C 99.082031 15.9375 100.148438 17.300781 99.777344 19.011719 Z M 99.777344 19.011719 " fill-opacity="1" fill-rule="nonzero"/><path fill="#e4002b" d="M 27.902344 13.808594 C 21.710938 13.792969 16.945312 18.558594 15.296875 26.070312 C 13.667969 33.585938 16.375 38.371094 22.316406 38.382812 C 26.707031 38.40625 30.105469 36.949219 32.941406 33.585938 C 33.648438 32.648438 33.457031 31.316406 32.515625 30.601562 C 31.574219 29.894531 30.257812 30.09375 29.539062 31.023438 C 27.824219 32.660156 26.390625 33.839844 23.828125 33.832031 C 21.277344 33.832031 19.585938 31.90625 20.558594 26.996094 L 34.367188 27.019531 L 34.867188 24.707031 C 36.101562 19.003906 33.898438 13.761719 27.898438 13.804688 L 27.910156 13.804688 Z M 30.1875 23.1875 L 21.394531 23.164062 C 22.195312 19.886719 24.292969 17.976562 26.914062 17.988281 C 29.570312 17.988281 30.8125 19.910156 30.195312 23.1875 Z M 30.1875 23.1875 " fill-opacity="1" fill-rule="nonzero"/><path fill="#e4002b" d="M 71.175781 13.960938 C 71.007812 13.921875 70.847656 13.902344 70.699219 13.902344 C 68.527344 13.976562 66.886719 14.691406 65.660156 15.992188 C 64.546875 14.714844 62.425781 13.886719 60.496094 13.871094 C 54.5625 13.867188 50.589844 17.953125 49.691406 22.09375 C 49.070312 24.957031 50.160156 26.785156 51.714844 28.390625 C 50.640625 28.699219 47.714844 30.429688 47.214844 32.703125 C 46.664062 35.25 48.875 35.851562 49.773438 36.527344 L 49.753906 36.632812 C 47.789062 36.621094 45.308594 38.027344 44.671875 40.992188 C 43.871094 44.722656 47.503906 46.65625 53.652344 46.667969 C 60.949219 46.695312 65.035156 43.050781 65.769531 39.675781 C 67.828125 30.207031 51.652344 35.355469 52.484375 31.527344 C 52.789062 30.164062 54.695312 30.074219 57.070312 30.074219 C 62.78125 30.09375 66.382812 26.910156 67.34375 22.457031 C 67.746094 20.628906 67.511719 19.253906 67.023438 18.253906 C 67.976562 17.714844 69.375 17.714844 70.65625 17.714844 C 71.585938 17.757812 72.425781 17.144531 72.65625 16.242188 C 72.902344 15.207031 72.230469 14.183594 71.183594 13.941406 L 71.183594 13.960938 Z M 54.308594 37.5625 C 59.59375 37.574219 60.855469 39.226562 60.625 40.308594 C 60.445312 41.140625 58.859375 42.945312 55.351562 42.945312 C 50.773438 42.933594 49.449219 42.113281 49.839844 40.304688 C 50.0625 39.285156 51.320312 37.558594 54.308594 37.5625 Z M 62.433594 22.003906 C 61.957031 24.179688 59.914062 25.917969 57.847656 25.902344 C 55.511719 25.902344 54.265625 24.167969 54.730469 21.988281 C 55.203125 19.804688 57.21875 18.074219 59.535156 18.074219 C 61.605469 18.085938 62.90625 19.824219 62.433594 22.003906 Z M 62.433594 22.003906 " fill-opacity="1" fill-rule="nonzero"/><path fill="#e4002b" d="M 51.132812 13.855469 L 49.832031 19.824219 C 49.578125 19.78125 49.277344 19.78125 48.875 19.78125 C 46.148438 19.773438 43.074219 22.996094 42.949219 23.59375 L 40.34375 35.730469 C 40.015625 37.230469 38.546875 38.457031 37.035156 38.449219 C 35.539062 38.449219 34.570312 37.214844 34.898438 35.722656 L 38.910156 17.082031 L 37.332031 17.082031 C 36.554688 17.078125 35.933594 16.4375 35.933594 15.664062 C 35.933594 14.890625 36.578125 14.269531 37.351562 14.28125 L 41.375 14.28125 L 44.527344 14.292969 L 43.648438 18.355469 L 43.742188 18.355469 C 45.671875 15.535156 47.859375 13.941406 51.140625 13.859375 Z M 51.132812 13.855469 " fill-opacity="1" fill-rule="nonzero"/><path fill="#e4002b" d="M 81.257812 13.933594 C 75.050781 13.921875 70.277344 18.6875 68.644531 26.214844 C 67.007812 33.726562 69.707031 38.519531 75.917969 38.523438 C 82.125 38.542969 86.898438 33.777344 88.523438 26.261719 C 90.152344 18.75 87.453125 13.960938 81.257812 13.929688 Z M 83.0625 26.25 C 81.917969 31.539062 79.945312 33.988281 76.910156 33.980469 C 73.863281 33.96875 72.953125 31.507812 74.097656 26.21875 C 75.246094 20.933594 77.230469 18.484375 80.277344 18.496094 C 83.304688 18.496094 84.210938 20.964844 83.070312 26.25 Z M 83.0625 26.25 " fill-opacity="1" fill-rule="nonzero"/></svg>